<?xml version="1.0" standalone="no"?>
<!DOCTYPE svg PUBLIC "-//W3C//DTD SVG 20010904//EN"
 "http://www.w3.org/TR/2001/REC-SVG-20010904/DTD/svg10.dtd">
<svg version="1.0" xmlns="http://www.w3.org/2000/svg"
 width="500.000000pt" height="500.000000pt" viewBox="0 0 500.000000 500.000000"
 preserveAspectRatio="xMidYMid meet">
<metadata>
Created by potrace 1.14, written by Peter Selinger 2001-2017
</metadata>
<g transform="translate(0.000000,500.000000) scale(0.100000,-0.100000)"
fill="#000000" stroke="none">
<path d="M0 2500 l0 -2500 2500 0 2500 0 0 2500 0 2500 -2500 0 -2500 0 0
-2500z m1739 1566 c21 -19 21 -26 21 -362 l0 -343 614 -3 c588 -3 615 -4 635
-22 21 -19 21 -21 21 -692 l0 -673 -26 -20 c-27 -21 -32 -21 -906 -21 l-879 0
-24 25 -25 24 0 1028 c0 1115 -2 1065 53 1076 12 3 128 4 258 3 218 -1 239 -3
258 -20z m1271 -8 c19 -21 20 -34 20 -269 0 -228 -1 -249 -19 -270 -19 -24
-21 -24 -257 -27 -255 -3 -283 1 -303 44 -7 16 -11 106 -11 258 0 221 1 235
21 260 l20 26 254 0 c249 0 255 0 275 -22z m801 -687 c18 -22 19 -49 19 -708
l0 -684 -25 -24 -24 -25 -244 0 c-232 0 -246 1 -271 21 l-26 20 0 693 c0 647
1 694 18 708 27 25 44 26 295 25 238 -2 239 -2 258 -26z m-791 -1601 c19 -19
20 -33 20 -275 0 -242 -1 -256 -20 -275 -20 -20 -33 -20 -899 -20 l-880 0 -20
26 c-20 25 -21 39 -21 272 0 239 1 246 22 269 l21 23 879 0 c865 0 878 0 898
-20z m781 1 c24 -19 24 -21 27 -252 2 -128 0 -244 -3 -256 -3 -13 -14 -32 -25
-43 -19 -19 -34 -20 -264 -20 -231 0 -245 1 -270 21 l-26 20 0 252 c0 244 1
251 22 274 21 23 23 23 269 23 228 0 249 -1 270 -19z m-2503 -743 c5 -7 9 -26
8 -43 -1 -27 -5 -30 -38 -33 l-38 -3 0 45 c0 44 1 46 29 46 16 0 33 -6 39 -12z
m82 -23 c0 -24 5 -35 15 -35 10 0 15 11 15 35 0 19 5 35 10 35 18 0 12 -78 -7
-89 -30 -16 -53 5 -53 49 0 22 5 40 10 40 6 0 10 -16 10 -35z m143 29 c3 -3 1
-15 -6 -25 -9 -15 -9 -24 1 -39 11 -18 10 -20 -10 -20 -21 0 -23 5 -23 45 0
34 4 45 16 45 9 0 18 -3 22 -6z m77 -35 c0 -22 5 -29 20 -29 11 0 20 -4 20
-10 0 -5 -16 -10 -35 -10 -34 0 -35 1 -35 38 0 21 3 42 6 45 12 12 24 -4 24
-34z m149 27 c7 -8 11 -27 9 -43 -2 -23 -8 -29 -35 -31 -33 -3 -33 -3 -33 42
0 42 2 46 24 46 13 0 29 -6 35 -14z m96 -31 c0 -40 -2 -45 -22 -45 -13 0 -23
5 -23 10 0 6 5 10 10 10 13 0 13 37 0 45 -14 9 -2 25 18 25 13 0 17 -9 17 -45z
m89 23 l16 -22 0 23 c0 40 25 17 28 -27 2 -32 0 -42 -12 -42 -8 0 -20 8 -25
18 -10 16 -10 16 -11 0 0 -10 -7 -18 -15 -18 -11 0 -15 12 -15 45 0 50 11 57
34 23z m153 10 c15 -25 14 -62 -2 -74 -39 -28 -80 20 -55 65 12 23 44 28 57 9z
m187 6 c11 -4 16 -19 16 -45 0 -38 -1 -39 -35 -39 -35 0 -35 0 -35 45 0 47 12
55 54 39z m96 -35 c0 -22 5 -29 20 -29 11 0 20 -4 20 -10 0 -5 -16 -10 -35
-10 -34 0 -35 1 -35 38 0 21 3 42 6 45 12 12 24 -4 24 -34z m148 29 c17 -17
15 -66 -4 -76 -41 -23 -78 23 -54 67 12 23 40 27 58 9z m121 -2 c7 -8 11 -29
9 -47 -2 -24 -8 -33 -25 -35 -24 -4 -53 19 -53 42 0 45 44 70 69 40z m81 -22
c0 -45 24 -42 28 4 5 46 22 40 22 -8 0 -44 -22 -65 -52 -49 -13 7 -18 22 -18
49 0 22 5 40 10 40 6 0 10 -16 10 -36z m165 26 c3 -5 -4 -11 -17 -11 -17 -1
-18 -3 -5 -6 25 -6 21 -31 -5 -36 -20 -4 -19 -4 5 -6 40 -2 33 -21 -8 -21 -35
0 -35 0 -35 45 0 43 1 45 29 45 17 0 33 -4 36 -10z m113 -9 c3 -10 -2 -13 -19
-8 l-24 6 23 -16 c42 -29 13 -76 -32 -51 -26 14 -19 29 12 23 23 -5 24 -4 6 4
-30 13 -38 29 -23 47 15 18 51 15 57 -5z"/>
<path d="M1760 2645 l0 -115 340 0 340 0 0 115 0 115 -340 0 -340 0 0 -115z"/>
<path d="M1260 995 c0 -33 15 -33 16 0 1 14 -2 25 -7 25 -5 0 -9 -11 -9 -25z"/>
<path d="M1710 997 c0 -27 13 -36 26 -16 3 6 -1 18 -10 27 -15 15 -16 14 -16
-11z"/>
<path d="M2050 995 c0 -14 4 -25 10 -25 5 0 7 7 4 15 -4 8 -1 15 6 15 6 0 8 5
5 10 -11 18 -25 10 -25 -15z"/>
<path d="M2240 995 c0 -17 6 -25 17 -25 13 0 14 3 6 11 -6 6 -9 18 -6 25 3 8
0 14 -6 14 -6 0 -11 -11 -11 -25z"/>
<path d="M2480 995 c0 -14 5 -25 10 -25 6 0 10 11 10 25 0 14 -4 25 -10 25 -5
0 -10 -11 -10 -25z"/>
<path d="M2600 995 c0 -14 5 -25 10 -25 6 0 10 11 10 25 0 14 -4 25 -10 25 -5
0 -10 -11 -10 -25z"/>
</g>
</svg>
