<svg xmlns="http://www.w3.org/2000/svg" xmlns:xlink="http://www.w3.org/1999/xlink" width="500" zoomAndPan="magnify" viewBox="0 0 375 374.999991" height="500" preserveAspectRatio="xMidYMid meet" version="1.0"><defs><g/><clipPath id="5a8d4294ec"><path d="M 87.675781 68.492188 L 132.480469 68.492188 L 132.480469 222.6875 L 87.675781 222.6875 Z M 87.675781 68.492188 " clip-rule="nonzero"/></clipPath><clipPath id="adea386fff"><path d="M 126.574219 68.492188 L 93.585938 68.492188 C 90.308594 68.492188 87.675781 71.125 87.675781 74.398438 L 87.675781 216.605469 C 87.675781 219.878906 90.308594 222.515625 93.585938 222.515625 L 126.574219 222.515625 C 129.847656 222.515625 132.480469 219.878906 132.480469 216.605469 L 132.480469 74.398438 C 132.480469 71.125 129.847656 68.492188 126.574219 68.492188 Z M 126.574219 68.492188 " clip-rule="nonzero"/></clipPath><clipPath id="b177029aee"><path d="M 87.675781 185.390625 L 227.691406 185.390625 L 227.691406 230.199219 L 87.675781 230.199219 Z M 87.675781 185.390625 " clip-rule="nonzero"/></clipPath><clipPath id="0ad103be0c"><path d="M 87.675781 191.300781 L 87.675781 224.289062 C 87.675781 227.5625 90.308594 230.199219 93.582031 230.199219 L 221.714844 230.199219 C 224.988281 230.199219 227.621094 227.5625 227.621094 224.289062 L 227.621094 191.300781 C 227.621094 188.027344 224.988281 185.390625 221.714844 185.390625 L 93.582031 185.390625 C 90.308594 185.390625 87.675781 188.027344 87.675781 191.300781 Z M 87.675781 191.300781 " clip-rule="nonzero"/></clipPath><clipPath id="d69ce3e874"><path d="M 182.8125 123 L 227.617188 123 L 227.617188 222.511719 L 182.8125 222.511719 Z M 182.8125 123 " clip-rule="nonzero"/></clipPath><clipPath id="8545eef9ed"><path d="M 188.722656 222.511719 L 221.710938 222.511719 C 224.984375 222.511719 227.617188 219.875 227.617188 216.601562 L 227.617188 129.003906 C 227.617188 125.730469 224.984375 123.097656 221.710938 123.097656 L 188.722656 123.097656 C 185.445312 123.097656 182.8125 125.730469 182.8125 129.003906 L 182.8125 216.601562 C 182.8125 219.875 185.445312 222.511719 188.722656 222.511719 Z M 188.722656 222.511719 " clip-rule="nonzero"/></clipPath><clipPath id="c2ddef4391"><path d="M 242.511719 120 L 287.320312 120 L 287.320312 230.195312 L 242.511719 230.195312 Z M 242.511719 120 " clip-rule="nonzero"/></clipPath><clipPath id="d43c244da9"><path d="M 248.421875 230.195312 L 281.410156 230.195312 C 284.683594 230.195312 287.320312 227.5625 287.320312 224.289062 L 287.320312 126 C 287.320312 122.726562 284.683594 120.089844 281.410156 120.089844 L 248.421875 120.089844 C 245.148438 120.089844 242.511719 122.726562 242.511719 126 L 242.511719 224.289062 C 242.511719 227.5625 245.148438 230.195312 248.421875 230.195312 Z M 248.421875 230.195312 " clip-rule="nonzero"/></clipPath><clipPath id="01906c534d"><path d="M 89.929688 240.445312 L 228.371094 240.445312 L 228.371094 285.25 L 89.929688 285.25 Z M 89.929688 240.445312 " clip-rule="nonzero"/></clipPath><clipPath id="16930db86b"><path d="M 89.929688 246.351562 L 89.929688 279.339844 C 89.929688 282.617188 92.5625 285.25 95.835938 285.25 L 222.382812 285.25 C 225.65625 285.25 228.292969 282.617188 228.292969 279.339844 L 228.292969 246.351562 C 228.292969 243.078125 225.65625 240.445312 222.382812 240.445312 L 95.835938 240.445312 C 92.5625 240.445312 89.929688 243.078125 89.929688 246.351562 Z M 89.929688 246.351562 " clip-rule="nonzero"/></clipPath><clipPath id="3497b58bd0"><path d="M 110.191406 123.09375 L 212.753906 123.09375 L 212.753906 167.898438 L 110.191406 167.898438 Z M 110.191406 123.09375 " clip-rule="nonzero"/></clipPath><clipPath id="d6ca889f73"><path d="M 110.191406 129.003906 L 110.191406 161.992188 C 110.191406 165.265625 112.828125 167.898438 116.101562 167.898438 L 206.699219 167.898438 C 209.972656 167.898438 212.609375 165.265625 212.609375 161.992188 L 212.609375 129.003906 C 212.609375 125.730469 209.972656 123.09375 206.699219 123.09375 L 116.101562 123.09375 C 112.828125 123.09375 110.191406 125.730469 110.191406 129.003906 Z M 110.191406 129.003906 " clip-rule="nonzero"/></clipPath><clipPath id="2772a9042e"><path d="M 182.816406 68.492188 L 227.625 68.492188 L 227.625 113.296875 L 182.816406 113.296875 Z M 182.816406 68.492188 " clip-rule="nonzero"/></clipPath><clipPath id="a4f9818eaa"><path d="M 221.714844 68.492188 L 188.726562 68.492188 C 185.453125 68.492188 182.816406 71.125 182.816406 74.398438 L 182.816406 107.390625 C 182.816406 110.664062 185.453125 113.296875 188.726562 113.296875 L 221.714844 113.296875 C 224.988281 113.296875 227.625 110.664062 227.625 107.390625 L 227.625 74.398438 C 227.625 71.125 224.988281 68.492188 221.714844 68.492188 Z M 221.714844 68.492188 " clip-rule="nonzero"/></clipPath><clipPath id="f7f1a4d236"><path d="M 242.519531 240.453125 L 287.324219 240.453125 L 287.324219 285.257812 L 242.519531 285.257812 Z M 242.519531 240.453125 " clip-rule="nonzero"/></clipPath><clipPath id="99fd5a3b9d"><path d="M 281.414062 240.453125 L 248.425781 240.453125 C 245.152344 240.453125 242.519531 243.085938 242.519531 246.359375 L 242.519531 279.351562 C 242.519531 282.625 245.152344 285.257812 248.425781 285.257812 L 281.414062 285.257812 C 284.691406 285.257812 287.324219 282.625 287.324219 279.351562 L 287.324219 246.359375 C 287.324219 243.085938 284.691406 240.453125 281.414062 240.453125 Z M 281.414062 240.453125 " clip-rule="nonzero"/></clipPath></defs><g clip-path="url(#5a8d4294ec)"><g clip-path="url(#adea386fff)"><path fill="#f3f5f9" d="M 87.675781 68.492188 L 132.480469 68.492188 L 132.480469 222.511719 L 87.675781 222.511719 Z M 87.675781 68.492188 " fill-opacity="1" fill-rule="nonzero"/></g></g><g clip-path="url(#b177029aee)"><g clip-path="url(#0ad103be0c)"><path fill="#f3f5f9" d="M 87.675781 230.199219 L 87.675781 185.390625 L 227.691406 185.390625 L 227.691406 230.199219 Z M 87.675781 230.199219 " fill-opacity="1" fill-rule="nonzero"/></g></g><g clip-path="url(#d69ce3e874)"><g clip-path="url(#8545eef9ed)"><path fill="#f3f5f9" d="M 227.617188 222.511719 L 182.8125 222.511719 L 182.8125 123.097656 L 227.617188 123.097656 Z M 227.617188 222.511719 " fill-opacity="1" fill-rule="nonzero"/></g></g><g clip-path="url(#c2ddef4391)"><g clip-path="url(#d43c244da9)"><path fill="#f3f5f9" d="M 287.320312 230.195312 L 242.511719 230.195312 L 242.511719 120.105469 L 287.320312 120.105469 Z M 287.320312 230.195312 " fill-opacity="1" fill-rule="nonzero"/></g></g><g clip-path="url(#01906c534d)"><g clip-path="url(#16930db86b)"><path fill="#f3f5f9" d="M 89.929688 285.25 L 89.929688 240.445312 L 228.371094 240.445312 L 228.371094 285.25 Z M 89.929688 285.25 " fill-opacity="1" fill-rule="nonzero"/></g></g><g clip-path="url(#3497b58bd0)"><g clip-path="url(#d6ca889f73)"><path fill="#f3f5f9" d="M 110.191406 167.898438 L 110.191406 123.09375 L 212.582031 123.09375 L 212.582031 167.898438 Z M 110.191406 167.898438 " fill-opacity="1" fill-rule="nonzero"/></g></g><g clip-path="url(#2772a9042e)"><g clip-path="url(#a4f9818eaa)"><path fill="#05b6d3" d="M 182.816406 68.492188 L 227.625 68.492188 L 227.625 113.296875 L 182.816406 113.296875 Z M 182.816406 68.492188 " fill-opacity="1" fill-rule="nonzero"/></g></g><g clip-path="url(#f7f1a4d236)"><g clip-path="url(#99fd5a3b9d)"><path fill="#05b6d3" d="M 242.519531 240.453125 L 287.324219 240.453125 L 287.324219 285.257812 L 242.519531 285.257812 Z M 242.519531 240.453125 " fill-opacity="1" fill-rule="nonzero"/></g></g><g fill="#f3f5f9" fill-opacity="0.4"><g transform="translate(92.201, 304.200155)"><g><path d="M 5.429688 -3.410156 C 5.519531 -3.449219 6.160156 -3.769531 6.160156 -4.777344 C 6.160156 -5.71875 5.457031 -6.589844 3.828125 -6.589844 L 1.03125 -6.589844 C 0.800781 -6.589844 0.738281 -6.476562 0.738281 -6.296875 L 0.738281 -0.289062 C 0.738281 -0.109375 0.800781 0 1.03125 0 L 3.96875 0 C 5.359375 0 6.347656 -0.648438 6.347656 -1.917969 C 6.347656 -3 5.507812 -3.378906 5.429688 -3.410156 Z M 3.988281 -1.417969 L 2.308594 -1.417969 L 2.308594 -5.179688 L 3.828125 -5.179688 C 4.347656 -5.179688 4.660156 -5.070312 4.660156 -4.617188 C 4.660156 -4.230469 4.410156 -4.019531 3.828125 -4.019531 L 3.699219 -4.019531 C 3.46875 -4.019531 3.410156 -3.910156 3.410156 -3.730469 L 3.410156 -2.96875 C 3.410156 -2.789062 3.46875 -2.679688 3.699219 -2.679688 L 3.929688 -2.679688 C 4.410156 -2.679688 4.757812 -2.539062 4.757812 -2.070312 C 4.757812 -1.621094 4.480469 -1.417969 3.988281 -1.417969 Z M 3.988281 -1.417969 "/></g></g></g><g fill="#f3f5f9" fill-opacity="0.4"><g transform="translate(101.648283, 304.200155)"><g><path d="M 5.660156 -6.578125 L 4.667969 -6.578125 C 4.488281 -6.578125 4.378906 -6.519531 4.378906 -6.289062 L 4.378906 -2.230469 C 4.378906 -1.597656 3.960938 -1.238281 3.300781 -1.238281 C 2.640625 -1.238281 2.230469 -1.597656 2.230469 -2.230469 L 2.230469 -6.289062 C 2.230469 -6.519531 2.121094 -6.578125 1.941406 -6.578125 L 0.949219 -6.578125 C 0.769531 -6.578125 0.660156 -6.519531 0.660156 -6.289062 L 0.660156 -2.007812 C 0.660156 -0.441406 2.109375 0.148438 3.300781 0.148438 C 4.488281 0.148438 5.949219 -0.441406 5.949219 -2.007812 L 5.949219 -6.289062 C 5.949219 -6.519531 5.839844 -6.578125 5.660156 -6.578125 Z M 5.660156 -6.578125 "/></g></g></g><g fill="#f3f5f9" fill-opacity="0.4"><g transform="translate(110.835671, 304.200155)"><g><path d="M 3.597656 -1.371094 L 2.96875 -1.371094 L 2.96875 -5.1875 L 3.570312 -5.1875 C 3.800781 -5.1875 3.859375 -5.296875 3.859375 -5.480469 L 3.859375 -6.289062 C 3.859375 -6.46875 3.800781 -6.578125 3.570312 -6.578125 L 0.789062 -6.578125 C 0.558594 -6.578125 0.5 -6.46875 0.5 -6.289062 L 0.5 -5.480469 C 0.5 -5.296875 0.558594 -5.1875 0.789062 -5.1875 L 1.398438 -5.1875 L 1.398438 -1.371094 L 0.769531 -1.371094 C 0.539062 -1.371094 0.480469 -1.257812 0.480469 -1.078125 L 0.480469 -0.289062 C 0.480469 -0.109375 0.539062 0 0.769531 0 L 3.597656 0 C 3.828125 0 3.890625 -0.109375 3.890625 -0.289062 L 3.890625 -1.078125 C 3.890625 -1.257812 3.828125 -1.371094 3.597656 -1.371094 Z M 3.597656 -1.371094 "/></g></g></g><g fill="#f3f5f9" fill-opacity="0.4"><g transform="translate(117.853911, 304.200155)"><g><path d="M 5.1875 -1.398438 L 2.308594 -1.398438 L 2.308594 -6.289062 C 2.308594 -6.519531 2.199219 -6.578125 2.019531 -6.578125 L 1.03125 -6.578125 C 0.851562 -6.578125 0.738281 -6.519531 0.738281 -6.289062 L 0.738281 -0.289062 C 0.738281 -0.109375 0.800781 0 1.03125 0 L 5.1875 0 C 5.417969 0 5.480469 -0.109375 5.480469 -0.289062 L 5.480469 -1.109375 C 5.480469 -1.289062 5.417969 -1.398438 5.1875 -1.398438 Z M 5.1875 -1.398438 "/></g></g></g><g fill="#f3f5f9" fill-opacity="0.4"><g transform="translate(126.251611, 304.200155)"><g><path d="M 3.269531 -6.578125 L 1.03125 -6.578125 C 0.800781 -6.578125 0.738281 -6.46875 0.738281 -6.289062 L 0.738281 -0.289062 C 0.738281 -0.109375 0.800781 0 1.03125 0 L 3.269531 0 C 4.457031 0 5.957031 -0.679688 5.957031 -2.25 L 5.957031 -4.328125 C 5.957031 -5.886719 4.457031 -6.578125 3.269531 -6.578125 Z M 4.390625 -4.1875 L 4.390625 -2.390625 C 4.390625 -1.75 3.929688 -1.390625 3.269531 -1.390625 L 2.308594 -1.390625 L 2.308594 -5.1875 L 3.269531 -5.1875 C 3.929688 -5.1875 4.390625 -4.820312 4.390625 -4.1875 Z M 4.390625 -4.1875 "/></g></g></g><g fill="#f3f5f9" fill-opacity="0.4"><g transform="translate(135.329044, 304.200155)"><g><path d="M 3.597656 -1.371094 L 2.96875 -1.371094 L 2.96875 -5.1875 L 3.570312 -5.1875 C 3.800781 -5.1875 3.859375 -5.296875 3.859375 -5.480469 L 3.859375 -6.289062 C 3.859375 -6.46875 3.800781 -6.578125 3.570312 -6.578125 L 0.789062 -6.578125 C 0.558594 -6.578125 0.5 -6.46875 0.5 -6.289062 L 0.5 -5.480469 C 0.5 -5.296875 0.558594 -5.1875 0.789062 -5.1875 L 1.398438 -5.1875 L 1.398438 -1.371094 L 0.769531 -1.371094 C 0.539062 -1.371094 0.480469 -1.257812 0.480469 -1.078125 L 0.480469 -0.289062 C 0.480469 -0.109375 0.539062 0 0.769531 0 L 3.597656 0 C 3.828125 0 3.890625 -0.109375 3.890625 -0.289062 L 3.890625 -1.078125 C 3.890625 -1.257812 3.828125 -1.371094 3.597656 -1.371094 Z M 3.597656 -1.371094 "/></g></g></g><g fill="#f3f5f9" fill-opacity="0.4"><g transform="translate(142.347285, 304.200155)"><g><path d="M 5.789062 -6.578125 L 4.828125 -6.578125 C 4.648438 -6.578125 4.539062 -6.519531 4.539062 -6.289062 L 4.539062 -2.820312 L 2.417969 -6.238281 C 2.289062 -6.4375 2.21875 -6.578125 1.96875 -6.578125 L 1.03125 -6.578125 C 0.800781 -6.578125 0.738281 -6.46875 0.738281 -6.289062 L 0.738281 -0.289062 C 0.738281 -0.0585938 0.851562 0 1.03125 0 L 2.019531 0 C 2.199219 0 2.308594 -0.0585938 2.308594 -0.289062 L 2.308594 -3.769531 L 4.429688 -0.339844 C 4.558594 -0.140625 4.628906 0 4.878906 0 L 5.789062 0 C 6.019531 0 6.078125 -0.109375 6.078125 -0.289062 L 6.078125 -6.289062 C 6.078125 -6.519531 5.96875 -6.578125 5.789062 -6.578125 Z M 5.789062 -6.578125 "/></g></g></g><g fill="#f3f5f9" fill-opacity="0.4"><g transform="translate(151.744594, 304.200155)"><g><path d="M 5.628906 -3.667969 L 3.4375 -3.667969 C 3.210938 -3.667969 3.148438 -3.558594 3.148438 -3.378906 L 3.148438 -2.597656 C 3.148438 -2.417969 3.210938 -2.308594 3.4375 -2.308594 L 4.339844 -2.308594 C 4.339844 -1.539062 3.878906 -1.238281 3.230469 -1.238281 C 2.570312 -1.238281 2.128906 -1.609375 2.128906 -2.25 L 2.128906 -4.257812 C 2.128906 -4.898438 2.570312 -5.339844 3.230469 -5.339844 C 3.898438 -5.339844 4.257812 -5.039062 4.367188 -4.730469 C 4.417969 -4.589844 4.378906 -4.390625 4.660156 -4.390625 L 5.628906 -4.390625 C 5.859375 -4.390625 5.917969 -4.429688 5.917969 -4.667969 C 5.917969 -6.007812 4.480469 -6.726562 3.230469 -6.726562 C 2.050781 -6.726562 0.539062 -6.058594 0.539062 -4.480469 L 0.539062 -2.019531 C 0.539062 -0.449219 2.050781 0.148438 3.230469 0.148438 C 4.367188 0.148438 5.828125 -0.488281 5.917969 -1.929688 L 5.917969 -3.378906 C 5.917969 -3.558594 5.859375 -3.667969 5.628906 -3.667969 Z M 5.628906 -3.667969 "/></g></g></g><g fill="#f3f5f9" fill-opacity="0.4"><g transform="translate(160.782039, 304.200155)"><g/></g></g><g fill="#f3f5f9" fill-opacity="0.4"><g transform="translate(166.07096, 304.200155)"><g><path d="M 5.429688 -3.410156 C 5.519531 -3.449219 6.160156 -3.769531 6.160156 -4.777344 C 6.160156 -5.71875 5.457031 -6.589844 3.828125 -6.589844 L 1.03125 -6.589844 C 0.800781 -6.589844 0.738281 -6.476562 0.738281 -6.296875 L 0.738281 -0.289062 C 0.738281 -0.109375 0.800781 0 1.03125 0 L 3.96875 0 C 5.359375 0 6.347656 -0.648438 6.347656 -1.917969 C 6.347656 -3 5.507812 -3.378906 5.429688 -3.410156 Z M 3.988281 -1.417969 L 2.308594 -1.417969 L 2.308594 -5.179688 L 3.828125 -5.179688 C 4.347656 -5.179688 4.660156 -5.070312 4.660156 -4.617188 C 4.660156 -4.230469 4.410156 -4.019531 3.828125 -4.019531 L 3.699219 -4.019531 C 3.46875 -4.019531 3.410156 -3.910156 3.410156 -3.730469 L 3.410156 -2.96875 C 3.410156 -2.789062 3.46875 -2.679688 3.699219 -2.679688 L 3.929688 -2.679688 C 4.410156 -2.679688 4.757812 -2.539062 4.757812 -2.070312 C 4.757812 -1.621094 4.480469 -1.417969 3.988281 -1.417969 Z M 3.988281 -1.417969 "/></g></g></g><g fill="#f3f5f9" fill-opacity="0.4"><g transform="translate(175.51824, 304.200155)"><g><path d="M 5.1875 -1.398438 L 2.308594 -1.398438 L 2.308594 -6.289062 C 2.308594 -6.519531 2.199219 -6.578125 2.019531 -6.578125 L 1.03125 -6.578125 C 0.851562 -6.578125 0.738281 -6.519531 0.738281 -6.289062 L 0.738281 -0.289062 C 0.738281 -0.109375 0.800781 0 1.03125 0 L 5.1875 0 C 5.417969 0 5.480469 -0.109375 5.480469 -0.289062 L 5.480469 -1.109375 C 5.480469 -1.289062 5.417969 -1.398438 5.1875 -1.398438 Z M 5.1875 -1.398438 "/></g></g></g><g fill="#f3f5f9" fill-opacity="0.4"><g transform="translate(183.915937, 304.200155)"><g><path d="M 5.910156 -2.109375 L 5.910156 -4.46875 C 5.910156 -6.046875 4.410156 -6.726562 3.21875 -6.726562 C 2.03125 -6.726562 0.550781 -6.046875 0.550781 -4.46875 L 0.550781 -2.109375 C 0.550781 -0.53125 2.03125 0.148438 3.21875 0.148438 C 4.410156 0.148438 5.910156 -0.53125 5.910156 -2.109375 Z M 4.339844 -4.328125 L 4.339844 -2.25 C 4.339844 -1.609375 3.878906 -1.238281 3.21875 -1.238281 C 2.570312 -1.238281 2.109375 -1.609375 2.109375 -2.25 L 2.109375 -4.328125 C 2.109375 -4.96875 2.570312 -5.339844 3.21875 -5.339844 C 3.878906 -5.339844 4.339844 -4.96875 4.339844 -4.328125 Z M 4.339844 -4.328125 "/></g></g></g><g fill="#f3f5f9" fill-opacity="0.4"><g transform="translate(192.943379, 304.200155)"><g><path d="M 5.929688 -0.46875 L 5.546875 -0.898438 C 5.808594 -1.230469 5.898438 -1.589844 5.898438 -2.097656 L 5.898438 -4.457031 C 5.898438 -6.039062 4.398438 -6.71875 3.210938 -6.71875 C 2.019531 -6.71875 0.539062 -6.039062 0.539062 -4.457031 L 0.539062 -2.097656 C 0.539062 -0.519531 2.019531 0.160156 3.210938 0.160156 C 3.640625 0.160156 4.058594 0.121094 4.480469 -0.0585938 L 4.957031 0.429688 C 5.089844 0.558594 5.25 0.539062 5.410156 0.378906 L 5.886719 -0.0117188 C 6.058594 -0.179688 6.058594 -0.351562 5.929688 -0.46875 Z M 4.339844 -4.328125 L 4.339844 -2.25 C 4.339844 -1.609375 3.878906 -1.238281 3.21875 -1.238281 C 2.570312 -1.238281 2.109375 -1.609375 2.109375 -2.25 L 2.109375 -4.328125 C 2.109375 -4.96875 2.570312 -5.339844 3.21875 -5.339844 C 3.878906 -5.339844 4.339844 -4.96875 4.339844 -4.328125 Z M 4.339844 -4.328125 "/></g></g></g><g fill="#f3f5f9" fill-opacity="0.4"><g transform="translate(201.980824, 304.200155)"><g><path d="M 5.660156 -6.578125 L 4.667969 -6.578125 C 4.488281 -6.578125 4.378906 -6.519531 4.378906 -6.289062 L 4.378906 -2.230469 C 4.378906 -1.597656 3.960938 -1.238281 3.300781 -1.238281 C 2.640625 -1.238281 2.230469 -1.597656 2.230469 -2.230469 L 2.230469 -6.289062 C 2.230469 -6.519531 2.121094 -6.578125 1.941406 -6.578125 L 0.949219 -6.578125 C 0.769531 -6.578125 0.660156 -6.519531 0.660156 -6.289062 L 0.660156 -2.007812 C 0.660156 -0.441406 2.109375 0.148438 3.300781 0.148438 C 4.488281 0.148438 5.949219 -0.441406 5.949219 -2.007812 L 5.949219 -6.289062 C 5.949219 -6.519531 5.839844 -6.578125 5.660156 -6.578125 Z M 5.660156 -6.578125 "/></g></g></g><g fill="#f3f5f9" fill-opacity="0.4"><g transform="translate(211.168209, 304.200155)"><g><path d="M 5.507812 -1.398438 L 2.320312 -1.398438 L 2.320312 -2.71875 L 5 -2.71875 C 5.230469 -2.71875 5.289062 -2.828125 5.289062 -3.007812 L 5.289062 -3.789062 C 5.289062 -3.96875 5.230469 -4.078125 5 -4.078125 L 2.320312 -4.078125 L 2.320312 -5.167969 L 5.339844 -5.167969 C 5.570312 -5.167969 5.628906 -5.277344 5.628906 -5.457031 L 5.628906 -6.289062 C 5.628906 -6.46875 5.570312 -6.578125 5.339844 -6.578125 L 1.03125 -6.578125 C 0.800781 -6.578125 0.738281 -6.46875 0.738281 -6.289062 L 0.738281 -0.289062 C 0.738281 -0.109375 0.800781 0 1.03125 0 L 5.507812 0 C 5.738281 0 5.796875 -0.109375 5.796875 -0.289062 L 5.796875 -1.109375 C 5.796875 -1.289062 5.738281 -1.398438 5.507812 -1.398438 Z M 5.507812 -1.398438 "/></g></g></g><g fill="#f3f5f9" fill-opacity="0.4"><g transform="translate(220.015727, 304.200155)"><g><path d="M 3.839844 -3.820312 C 3.4375 -3.980469 1.96875 -4.199219 1.96875 -4.808594 C 1.96875 -5.257812 2.519531 -5.386719 2.847656 -5.386719 C 3.148438 -5.386719 3.507812 -5.296875 3.699219 -5.117188 C 3.820312 -5 3.867188 -4.917969 3.910156 -4.820312 C 3.960938 -4.6875 3.988281 -4.550781 4.179688 -4.550781 L 5.160156 -4.550781 C 5.386719 -4.550781 5.449219 -4.589844 5.449219 -4.828125 C 5.449219 -6.148438 4.058594 -6.726562 2.789062 -6.726562 C 1.539062 -6.679688 0.359375 -6.039062 0.359375 -4.738281 C 0.359375 -3.46875 1.289062 -3.070312 2.300781 -2.75 C 3.148438 -2.480469 4.039062 -2.46875 4.039062 -1.910156 C 4.039062 -1.351562 3.597656 -1.230469 3.058594 -1.230469 C 2.6875 -1.230469 2.28125 -1.320312 2.078125 -1.558594 C 1.949219 -1.710938 1.898438 -1.839844 1.890625 -1.96875 C 1.871094 -2.21875 1.757812 -2.25 1.53125 -2.25 L 0.558594 -2.25 C 0.328125 -2.25 0.269531 -2.199219 0.269531 -1.96875 C 0.269531 -0.570312 1.710938 0.148438 2.960938 0.148438 C 4.5 0.148438 5.617188 -0.53125 5.617188 -1.949219 C 5.617188 -3.308594 4.558594 -3.597656 3.839844 -3.820312 Z M 3.839844 -3.820312 "/></g></g></g><g fill="#ffffff" fill-opacity="1"><g transform="translate(91.759057, 303.758212)"><g><path d="M 5.429688 -3.410156 C 5.519531 -3.449219 6.160156 -3.769531 6.160156 -4.777344 C 6.160156 -5.71875 5.457031 -6.589844 3.828125 -6.589844 L 1.03125 -6.589844 C 0.800781 -6.589844 0.738281 -6.476562 0.738281 -6.296875 L 0.738281 -0.289062 C 0.738281 -0.109375 0.800781 0 1.03125 0 L 3.96875 0 C 5.359375 0 6.347656 -0.648438 6.347656 -1.917969 C 6.347656 -3 5.507812 -3.378906 5.429688 -3.410156 Z M 3.988281 -1.417969 L 2.308594 -1.417969 L 2.308594 -5.179688 L 3.828125 -5.179688 C 4.347656 -5.179688 4.660156 -5.070312 4.660156 -4.617188 C 4.660156 -4.230469 4.410156 -4.019531 3.828125 -4.019531 L 3.699219 -4.019531 C 3.46875 -4.019531 3.410156 -3.910156 3.410156 -3.730469 L 3.410156 -2.96875 C 3.410156 -2.789062 3.46875 -2.679688 3.699219 -2.679688 L 3.929688 -2.679688 C 4.410156 -2.679688 4.757812 -2.539062 4.757812 -2.070312 C 4.757812 -1.621094 4.480469 -1.417969 3.988281 -1.417969 Z M 3.988281 -1.417969 "/></g></g></g><g fill="#ffffff" fill-opacity="1"><g transform="translate(101.20634, 303.758212)"><g><path d="M 5.660156 -6.578125 L 4.667969 -6.578125 C 4.488281 -6.578125 4.378906 -6.519531 4.378906 -6.289062 L 4.378906 -2.230469 C 4.378906 -1.597656 3.960938 -1.238281 3.300781 -1.238281 C 2.640625 -1.238281 2.230469 -1.597656 2.230469 -2.230469 L 2.230469 -6.289062 C 2.230469 -6.519531 2.121094 -6.578125 1.941406 -6.578125 L 0.949219 -6.578125 C 0.769531 -6.578125 0.660156 -6.519531 0.660156 -6.289062 L 0.660156 -2.007812 C 0.660156 -0.441406 2.109375 0.148438 3.300781 0.148438 C 4.488281 0.148438 5.949219 -0.441406 5.949219 -2.007812 L 5.949219 -6.289062 C 5.949219 -6.519531 5.839844 -6.578125 5.660156 -6.578125 Z M 5.660156 -6.578125 "/></g></g></g><g fill="#ffffff" fill-opacity="1"><g transform="translate(110.393728, 303.758212)"><g><path d="M 3.597656 -1.371094 L 2.96875 -1.371094 L 2.96875 -5.1875 L 3.570312 -5.1875 C 3.800781 -5.1875 3.859375 -5.296875 3.859375 -5.480469 L 3.859375 -6.289062 C 3.859375 -6.46875 3.800781 -6.578125 3.570312 -6.578125 L 0.789062 -6.578125 C 0.558594 -6.578125 0.5 -6.46875 0.5 -6.289062 L 0.5 -5.480469 C 0.5 -5.296875 0.558594 -5.1875 0.789062 -5.1875 L 1.398438 -5.1875 L 1.398438 -1.371094 L 0.769531 -1.371094 C 0.539062 -1.371094 0.480469 -1.257812 0.480469 -1.078125 L 0.480469 -0.289062 C 0.480469 -0.109375 0.539062 0 0.769531 0 L 3.597656 0 C 3.828125 0 3.890625 -0.109375 3.890625 -0.289062 L 3.890625 -1.078125 C 3.890625 -1.257812 3.828125 -1.371094 3.597656 -1.371094 Z M 3.597656 -1.371094 "/></g></g></g><g fill="#ffffff" fill-opacity="1"><g transform="translate(117.411968, 303.758212)"><g><path d="M 5.1875 -1.398438 L 2.308594 -1.398438 L 2.308594 -6.289062 C 2.308594 -6.519531 2.199219 -6.578125 2.019531 -6.578125 L 1.03125 -6.578125 C 0.851562 -6.578125 0.738281 -6.519531 0.738281 -6.289062 L 0.738281 -0.289062 C 0.738281 -0.109375 0.800781 0 1.03125 0 L 5.1875 0 C 5.417969 0 5.480469 -0.109375 5.480469 -0.289062 L 5.480469 -1.109375 C 5.480469 -1.289062 5.417969 -1.398438 5.1875 -1.398438 Z M 5.1875 -1.398438 "/></g></g></g><g fill="#ffffff" fill-opacity="1"><g transform="translate(125.809668, 303.758212)"><g><path d="M 3.269531 -6.578125 L 1.03125 -6.578125 C 0.800781 -6.578125 0.738281 -6.46875 0.738281 -6.289062 L 0.738281 -0.289062 C 0.738281 -0.109375 0.800781 0 1.03125 0 L 3.269531 0 C 4.457031 0 5.957031 -0.679688 5.957031 -2.25 L 5.957031 -4.328125 C 5.957031 -5.886719 4.457031 -6.578125 3.269531 -6.578125 Z M 4.390625 -4.1875 L 4.390625 -2.390625 C 4.390625 -1.75 3.929688 -1.390625 3.269531 -1.390625 L 2.308594 -1.390625 L 2.308594 -5.1875 L 3.269531 -5.1875 C 3.929688 -5.1875 4.390625 -4.820312 4.390625 -4.1875 Z M 4.390625 -4.1875 "/></g></g></g><g fill="#ffffff" fill-opacity="1"><g transform="translate(134.887101, 303.758212)"><g><path d="M 3.597656 -1.371094 L 2.96875 -1.371094 L 2.96875 -5.1875 L 3.570312 -5.1875 C 3.800781 -5.1875 3.859375 -5.296875 3.859375 -5.480469 L 3.859375 -6.289062 C 3.859375 -6.46875 3.800781 -6.578125 3.570312 -6.578125 L 0.789062 -6.578125 C 0.558594 -6.578125 0.5 -6.46875 0.5 -6.289062 L 0.5 -5.480469 C 0.5 -5.296875 0.558594 -5.1875 0.789062 -5.1875 L 1.398438 -5.1875 L 1.398438 -1.371094 L 0.769531 -1.371094 C 0.539062 -1.371094 0.480469 -1.257812 0.480469 -1.078125 L 0.480469 -0.289062 C 0.480469 -0.109375 0.539062 0 0.769531 0 L 3.597656 0 C 3.828125 0 3.890625 -0.109375 3.890625 -0.289062 L 3.890625 -1.078125 C 3.890625 -1.257812 3.828125 -1.371094 3.597656 -1.371094 Z M 3.597656 -1.371094 "/></g></g></g><g fill="#ffffff" fill-opacity="1"><g transform="translate(141.905341, 303.758212)"><g><path d="M 5.789062 -6.578125 L 4.828125 -6.578125 C 4.648438 -6.578125 4.539062 -6.519531 4.539062 -6.289062 L 4.539062 -2.820312 L 2.417969 -6.238281 C 2.289062 -6.4375 2.21875 -6.578125 1.96875 -6.578125 L 1.03125 -6.578125 C 0.800781 -6.578125 0.738281 -6.46875 0.738281 -6.289062 L 0.738281 -0.289062 C 0.738281 -0.0585938 0.851562 0 1.03125 0 L 2.019531 0 C 2.199219 0 2.308594 -0.0585938 2.308594 -0.289062 L 2.308594 -3.769531 L 4.429688 -0.339844 C 4.558594 -0.140625 4.628906 0 4.878906 0 L 5.789062 0 C 6.019531 0 6.078125 -0.109375 6.078125 -0.289062 L 6.078125 -6.289062 C 6.078125 -6.519531 5.96875 -6.578125 5.789062 -6.578125 Z M 5.789062 -6.578125 "/></g></g></g><g fill="#ffffff" fill-opacity="1"><g transform="translate(151.302651, 303.758212)"><g><path d="M 5.628906 -3.667969 L 3.4375 -3.667969 C 3.210938 -3.667969 3.148438 -3.558594 3.148438 -3.378906 L 3.148438 -2.597656 C 3.148438 -2.417969 3.210938 -2.308594 3.4375 -2.308594 L 4.339844 -2.308594 C 4.339844 -1.539062 3.878906 -1.238281 3.230469 -1.238281 C 2.570312 -1.238281 2.128906 -1.609375 2.128906 -2.25 L 2.128906 -4.257812 C 2.128906 -4.898438 2.570312 -5.339844 3.230469 -5.339844 C 3.898438 -5.339844 4.257812 -5.039062 4.367188 -4.730469 C 4.417969 -4.589844 4.378906 -4.390625 4.660156 -4.390625 L 5.628906 -4.390625 C 5.859375 -4.390625 5.917969 -4.429688 5.917969 -4.667969 C 5.917969 -6.007812 4.480469 -6.726562 3.230469 -6.726562 C 2.050781 -6.726562 0.539062 -6.058594 0.539062 -4.480469 L 0.539062 -2.019531 C 0.539062 -0.449219 2.050781 0.148438 3.230469 0.148438 C 4.367188 0.148438 5.828125 -0.488281 5.917969 -1.929688 L 5.917969 -3.378906 C 5.917969 -3.558594 5.859375 -3.667969 5.628906 -3.667969 Z M 5.628906 -3.667969 "/></g></g></g><g fill="#ffffff" fill-opacity="1"><g transform="translate(160.340096, 303.758212)"><g/></g></g><g fill="#ffffff" fill-opacity="1"><g transform="translate(165.629017, 303.758212)"><g><path d="M 5.429688 -3.410156 C 5.519531 -3.449219 6.160156 -3.769531 6.160156 -4.777344 C 6.160156 -5.71875 5.457031 -6.589844 3.828125 -6.589844 L 1.03125 -6.589844 C 0.800781 -6.589844 0.738281 -6.476562 0.738281 -6.296875 L 0.738281 -0.289062 C 0.738281 -0.109375 0.800781 0 1.03125 0 L 3.96875 0 C 5.359375 0 6.347656 -0.648438 6.347656 -1.917969 C 6.347656 -3 5.507812 -3.378906 5.429688 -3.410156 Z M 3.988281 -1.417969 L 2.308594 -1.417969 L 2.308594 -5.179688 L 3.828125 -5.179688 C 4.347656 -5.179688 4.660156 -5.070312 4.660156 -4.617188 C 4.660156 -4.230469 4.410156 -4.019531 3.828125 -4.019531 L 3.699219 -4.019531 C 3.46875 -4.019531 3.410156 -3.910156 3.410156 -3.730469 L 3.410156 -2.96875 C 3.410156 -2.789062 3.46875 -2.679688 3.699219 -2.679688 L 3.929688 -2.679688 C 4.410156 -2.679688 4.757812 -2.539062 4.757812 -2.070312 C 4.757812 -1.621094 4.480469 -1.417969 3.988281 -1.417969 Z M 3.988281 -1.417969 "/></g></g></g><g fill="#ffffff" fill-opacity="1"><g transform="translate(175.076297, 303.758212)"><g><path d="M 5.1875 -1.398438 L 2.308594 -1.398438 L 2.308594 -6.289062 C 2.308594 -6.519531 2.199219 -6.578125 2.019531 -6.578125 L 1.03125 -6.578125 C 0.851562 -6.578125 0.738281 -6.519531 0.738281 -6.289062 L 0.738281 -0.289062 C 0.738281 -0.109375 0.800781 0 1.03125 0 L 5.1875 0 C 5.417969 0 5.480469 -0.109375 5.480469 -0.289062 L 5.480469 -1.109375 C 5.480469 -1.289062 5.417969 -1.398438 5.1875 -1.398438 Z M 5.1875 -1.398438 "/></g></g></g><g fill="#ffffff" fill-opacity="1"><g transform="translate(183.473994, 303.758212)"><g><path d="M 5.910156 -2.109375 L 5.910156 -4.46875 C 5.910156 -6.046875 4.410156 -6.726562 3.21875 -6.726562 C 2.03125 -6.726562 0.550781 -6.046875 0.550781 -4.46875 L 0.550781 -2.109375 C 0.550781 -0.53125 2.03125 0.148438 3.21875 0.148438 C 4.410156 0.148438 5.910156 -0.53125 5.910156 -2.109375 Z M 4.339844 -4.328125 L 4.339844 -2.25 C 4.339844 -1.609375 3.878906 -1.238281 3.21875 -1.238281 C 2.570312 -1.238281 2.109375 -1.609375 2.109375 -2.25 L 2.109375 -4.328125 C 2.109375 -4.96875 2.570312 -5.339844 3.21875 -5.339844 C 3.878906 -5.339844 4.339844 -4.96875 4.339844 -4.328125 Z M 4.339844 -4.328125 "/></g></g></g><g fill="#ffffff" fill-opacity="1"><g transform="translate(192.501436, 303.758212)"><g><path d="M 5.929688 -0.46875 L 5.546875 -0.898438 C 5.808594 -1.230469 5.898438 -1.589844 5.898438 -2.097656 L 5.898438 -4.457031 C 5.898438 -6.039062 4.398438 -6.71875 3.210938 -6.71875 C 2.019531 -6.71875 0.539062 -6.039062 0.539062 -4.457031 L 0.539062 -2.097656 C 0.539062 -0.519531 2.019531 0.160156 3.210938 0.160156 C 3.640625 0.160156 4.058594 0.121094 4.480469 -0.0585938 L 4.957031 0.429688 C 5.089844 0.558594 5.25 0.539062 5.410156 0.378906 L 5.886719 -0.0117188 C 6.058594 -0.179688 6.058594 -0.351562 5.929688 -0.46875 Z M 4.339844 -4.328125 L 4.339844 -2.25 C 4.339844 -1.609375 3.878906 -1.238281 3.21875 -1.238281 C 2.570312 -1.238281 2.109375 -1.609375 2.109375 -2.25 L 2.109375 -4.328125 C 2.109375 -4.96875 2.570312 -5.339844 3.21875 -5.339844 C 3.878906 -5.339844 4.339844 -4.96875 4.339844 -4.328125 Z M 4.339844 -4.328125 "/></g></g></g><g fill="#ffffff" fill-opacity="1"><g transform="translate(201.538881, 303.758212)"><g><path d="M 5.660156 -6.578125 L 4.667969 -6.578125 C 4.488281 -6.578125 4.378906 -6.519531 4.378906 -6.289062 L 4.378906 -2.230469 C 4.378906 -1.597656 3.960938 -1.238281 3.300781 -1.238281 C 2.640625 -1.238281 2.230469 -1.597656 2.230469 -2.230469 L 2.230469 -6.289062 C 2.230469 -6.519531 2.121094 -6.578125 1.941406 -6.578125 L 0.949219 -6.578125 C 0.769531 -6.578125 0.660156 -6.519531 0.660156 -6.289062 L 0.660156 -2.007812 C 0.660156 -0.441406 2.109375 0.148438 3.300781 0.148438 C 4.488281 0.148438 5.949219 -0.441406 5.949219 -2.007812 L 5.949219 -6.289062 C 5.949219 -6.519531 5.839844 -6.578125 5.660156 -6.578125 Z M 5.660156 -6.578125 "/></g></g></g><g fill="#ffffff" fill-opacity="1"><g transform="translate(210.726266, 303.758212)"><g><path d="M 5.507812 -1.398438 L 2.320312 -1.398438 L 2.320312 -2.71875 L 5 -2.71875 C 5.230469 -2.71875 5.289062 -2.828125 5.289062 -3.007812 L 5.289062 -3.789062 C 5.289062 -3.96875 5.230469 -4.078125 5 -4.078125 L 2.320312 -4.078125 L 2.320312 -5.167969 L 5.339844 -5.167969 C 5.570312 -5.167969 5.628906 -5.277344 5.628906 -5.457031 L 5.628906 -6.289062 C 5.628906 -6.46875 5.570312 -6.578125 5.339844 -6.578125 L 1.03125 -6.578125 C 0.800781 -6.578125 0.738281 -6.46875 0.738281 -6.289062 L 0.738281 -0.289062 C 0.738281 -0.109375 0.800781 0 1.03125 0 L 5.507812 0 C 5.738281 0 5.796875 -0.109375 5.796875 -0.289062 L 5.796875 -1.109375 C 5.796875 -1.289062 5.738281 -1.398438 5.507812 -1.398438 Z M 5.507812 -1.398438 "/></g></g></g><g fill="#ffffff" fill-opacity="1"><g transform="translate(219.573784, 303.758212)"><g><path d="M 3.839844 -3.820312 C 3.4375 -3.980469 1.96875 -4.199219 1.96875 -4.808594 C 1.96875 -5.257812 2.519531 -5.386719 2.847656 -5.386719 C 3.148438 -5.386719 3.507812 -5.296875 3.699219 -5.117188 C 3.820312 -5 3.867188 -4.917969 3.910156 -4.820312 C 3.960938 -4.6875 3.988281 -4.550781 4.179688 -4.550781 L 5.160156 -4.550781 C 5.386719 -4.550781 5.449219 -4.589844 5.449219 -4.828125 C 5.449219 -6.148438 4.058594 -6.726562 2.789062 -6.726562 C 1.539062 -6.679688 0.359375 -6.039062 0.359375 -4.738281 C 0.359375 -3.46875 1.289062 -3.070312 2.300781 -2.75 C 3.148438 -2.480469 4.039062 -2.46875 4.039062 -1.910156 C 4.039062 -1.351562 3.597656 -1.230469 3.058594 -1.230469 C 2.6875 -1.230469 2.28125 -1.320312 2.078125 -1.558594 C 1.949219 -1.710938 1.898438 -1.839844 1.890625 -1.96875 C 1.871094 -2.21875 1.757812 -2.25 1.53125 -2.25 L 0.558594 -2.25 C 0.328125 -2.25 0.269531 -2.199219 0.269531 -1.96875 C 0.269531 -0.570312 1.710938 0.148438 2.960938 0.148438 C 4.5 0.148438 5.617188 -0.53125 5.617188 -1.949219 C 5.617188 -3.308594 4.558594 -3.597656 3.839844 -3.820312 Z M 3.839844 -3.820312 "/></g></g></g></svg>